<svg xmlns="http://www.w3.org/2000/svg" xmlns:xlink="http://www.w3.org/1999/xlink" viewBox="0 0 23.5 33.36"><defs><style>.cls-1{fill:url(#linear-gradient);}</style><linearGradient id="linear-gradient" y1="16.68" x2="23.5" y2="16.68" gradientUnits="userSpaceOnUse"><stop offset="0" stop-color="#f9ec31"/><stop offset="1" stop-color="#f6921e"/></linearGradient></defs><g id="Layer_2" data-name="Layer 2"><g id="Layer_1-2" data-name="Layer 1"><path class="cls-1" d="M23.18,19.85a6.33,6.33,0,0,0-5.23-4,6.21,6.21,0,0,0,3.63-8.9c-1.36-2.36-4.44-3.11-7.32-3.32a.34.34,0,0,1-.32-.34V0H10.22V3.19a.34.34,0,0,1-.35.35H8.52a.35.35,0,0,1-.35-.35V0H4.45V3.19a.34.34,0,0,1-.34.35H0V7.46H1.69a1,1,0,0,1,1,1V24.94a1,1,0,0,1-1,1H0v3.92H4.11a.34.34,0,0,1,.34.35v3.19H8.17V30.17a.35.35,0,0,1,.35-.35H9.87a.34.34,0,0,1,.35.35v3.19h3.72V30a.35.35,0,0,1,.31-.34c3.3-.31,6.66-1.34,8.26-4.05A7.3,7.3,0,0,0,23.18,19.85ZM8.17,7.46h3.37c2.42,0,5,.76,5,3.26s-2.35,3.7-5,3.7H8.17Zm3.9,18.32H8.17V18.2h3.47c2.39,0,5.41.57,5.8,3.09C17.88,24.2,15,25.78,12.07,25.78Z"/></g></g></svg>